<svg width="50" height="52" viewBox="0 0 50 52" fill="none" xmlns="http://www.w3.org/2000/svg">
<path id="Vector" d="M46.6356 51.271H3.33111C2.44765 51.271 1.60037 50.7365 0.97566 49.7849C0.350956 48.8333 0 47.5427 0 46.197L0 24.8524H2.39979L2.94109 22.8566H4.15279L4.69271 24.8439H9.41456V23.3323L9.8365 24.8545H12.2876L12.7096 23.3069V24.8502H24.442V21.586H24.6641C24.8223 21.5944 24.8681 21.6156 24.8681 22.0173V24.8545H30.9377V24.0955C31.5581 24.5754 32.2896 24.8566 33.0655 24.8566L33.1973 24.8545H33.1904H35.7442L36.2911 22.8672H37.5028L38.0371 24.8545H42.9589V22.9644L43.7028 24.8545H47.6391V12.3724H43.7431V13.846L43.1976 12.3724H39.1919V13.846L38.6909 12.3724H33.282C32.4625 12.3093 31.646 12.5662 30.91 13.1187L30.9391 13.0997V12.3724H27.2083V13.0997C26.7567 12.5575 26.1863 12.2982 25.6135 12.3745H25.6218H11.9878L11.0732 15.5986L10.1335 12.3745H5.83916V13.8481L5.36587 12.3745H1.70164L0.00416389 18.2942V5.60917C0.00416389 4.26346 0.355119 2.97286 0.979824 2.0213C1.60453 1.06974 2.45181 0.535156 3.33528 0.535156H46.6397C47.5232 0.535156 48.3705 1.06974 48.9952 2.0213C49.6199 2.97286 49.9709 4.26346 49.9709 5.60917V27.7657H47.3712C47.3296 27.7615 47.2796 27.7615 47.231 27.7615C46.6286 27.7615 46.0693 28.0363 45.6029 28.5078L45.614 28.4972V27.7657H41.7694C41.1687 27.7151 40.5745 27.9751 40.083 28.5035L40.0913 28.4951V27.7636H33.2265V28.4951C32.6645 28.0123 32.0298 27.7603 31.3846 27.7636H31.3305H31.3333H26.8044V28.4951C26.2127 27.9178 25.5105 27.6608 24.8112 27.7657L24.8237 27.7636H19.7563L18.5959 29.6748L17.5105 27.7636H9.9406V40.2541H17.369L18.564 38.3133L19.6897 40.2541H24.2685V37.3302H24.907C25.5209 37.3668 26.1332 37.2106 26.7058 36.8714L26.6753 36.8883V40.2583H30.4505V37.0046H30.6324C30.8628 37.0046 30.8864 37.0173 30.8864 37.3725V40.2604H42.3593L42.4994 40.2647C43.1573 40.2647 43.7708 39.9645 44.2816 39.4507L44.2691 39.4613V40.2604H47.9083L48.0818 40.2647C48.7633 40.2647 49.4115 40.0511 50 39.6642L49.9681 39.6833V46.1992C49.9681 47.5449 49.6171 48.8355 48.9924 49.787C48.3677 50.7386 47.5204 51.2732 46.637 51.2732L46.6356 51.271ZM29.293 38.5036H27.88V29.55H31.1223C31.7079 29.4674 32.2975 29.6174 32.8337 29.9856L32.8115 29.9729C33.2459 30.3365 33.536 31.03 33.536 31.8249L33.5332 31.9665V31.9602L33.5346 32.0405C33.5346 33.068 33.1279 33.9518 32.545 34.3365L32.5339 34.3429C32.8129 34.4951 33.046 34.7551 33.2195 35.0913L33.2223 35.0955C33.4183 35.5896 33.5003 36.1692 33.4555 36.7425L33.4569 36.7298V38.5014H32.0467V37.3809C32.1135 36.7709 32.0331 36.1446 31.8205 35.6177L31.8246 35.6283C31.6781 35.4589 31.5106 35.3365 31.3321 35.2686C31.1537 35.2006 30.968 35.1885 30.7864 35.2329L30.7948 35.2308H29.293V38.5014V38.5036ZM29.293 31.4V33.4105H31.0002C31.2412 33.4444 31.4839 33.3787 31.7025 33.2203L31.6941 33.2266C31.7835 33.1387 31.8569 33.0182 31.9078 32.8761C31.9587 32.7339 31.9855 32.5746 31.9856 32.4126L31.9842 32.364C31.9911 32.2024 31.9678 32.0433 31.9169 31.9011C31.8661 31.7589 31.7898 31.6416 31.6969 31.5627L31.6941 31.5606C31.4835 31.4171 31.2521 31.3589 31.0224 31.3915H31.0279L29.293 31.4ZM16.7666 38.5014H11.205V29.55H16.854L18.5821 32.4845L20.3684 29.55H24.8557C26.449 29.55 27.2235 30.5162 27.2235 32.4993C27.2235 34.5184 26.4227 35.4993 24.7807 35.4993H23.0249V38.4993H20.2948L18.5654 35.5416L16.768 38.5014H16.7666ZM21.6259 30.5099L19.469 34.0406L21.6259 37.6854V30.5099ZM12.6055 34.8545V36.6346H16.0587L17.6549 34.0088L16.1198 31.4H12.6041V33.0279H15.6882V34.8524L12.6055 34.8545ZM23.0249 31.4021V33.6811H24.839C25.3942 33.6811 25.7134 33.2499 25.7134 32.4972C25.7134 31.7784 25.4164 31.4 24.8543 31.4L23.0249 31.4021ZM48.061 38.5057H45.3489V36.5818H48.0499C48.252 36.6242 48.457 36.5437 48.6204 36.3577L48.619 36.3598C48.6711 36.2861 48.7127 36.1968 48.7411 36.0975C48.7696 35.9982 48.7842 35.891 48.7841 35.7826V35.7488C48.7842 35.6418 48.769 35.536 48.7395 35.4389C48.7101 35.3418 48.667 35.2556 48.6134 35.1864C48.4698 35.0283 48.2926 34.9574 48.1165 34.9877H48.1193L47.8598 34.975C46.5912 34.9243 45.1546 34.8651 45.1546 32.216C45.1546 30.9264 45.6848 29.55 47.1686 29.55H49.9681V31.457H47.4073C47.2095 31.4233 47.0097 31.4839 46.8354 31.6304L46.841 31.6262C46.7725 31.6949 46.7174 31.7904 46.6815 31.9028C46.6456 32.0151 46.6302 32.1401 46.637 32.2646V32.2625V32.2858C46.637 32.4282 46.6665 32.5671 46.7213 32.6825C46.7761 32.7979 46.8535 32.884 46.9423 32.9285L46.9451 32.9306C47.1211 33.0133 47.3053 33.0476 47.4892 33.0321H47.485L48.247 33.0617C48.8214 32.9744 49.3952 33.2349 49.8445 33.7868L49.8404 33.7826C49.882 33.8334 49.9181 33.8883 49.95 33.9496L49.9514 33.9518L49.9681 37.3598C49.7347 37.7753 49.4377 38.0969 49.1035 38.2963C48.7692 38.4958 48.4079 38.567 48.0513 38.5036L48.061 38.5057ZM42.5799 38.5057H39.8429V36.5818H42.5661C42.7698 36.6224 42.9761 36.5422 43.1421 36.3577L43.1393 36.3598C43.1911 36.2858 43.2324 36.1964 43.2606 36.0971C43.2888 35.9979 43.3032 35.8908 43.3031 35.7826V35.7615C43.303 35.6527 43.2878 35.5451 43.2583 35.446C43.2289 35.3468 43.186 35.2584 43.1324 35.1864C42.9861 35.0282 42.8068 34.9574 42.6285 34.9877H42.6313L42.3731 34.975C41.1087 34.9243 39.6736 34.8651 39.6736 32.216C39.6736 30.9264 40.201 29.55 41.6819 29.55H44.4967V31.457H41.9207C41.7242 31.4237 41.5258 31.4843 41.353 31.6304L41.3585 31.6262C41.2856 31.7026 41.2276 31.8076 41.1907 31.9301C41.1537 32.0526 41.1391 32.188 41.1485 32.3221C41.1579 32.4561 41.1909 32.5838 41.244 32.6917C41.2971 32.7995 41.3683 32.8835 41.4501 32.9348L41.4529 32.937C41.6312 33.0202 41.8178 33.0546 42.0039 33.0384H41.9998L42.7562 33.068C43.3337 32.9833 43.9101 33.2441 44.3635 33.7953L44.3593 33.789C44.5118 34.0451 44.6278 34.3466 44.7 34.6745C44.7721 35.0023 44.7989 35.3494 44.7785 35.6938V35.6833C44.7826 37.5501 44.0401 38.5014 42.5758 38.5014L42.5799 38.5057ZM39.0018 38.5057H34.3105V29.5479H38.9976V31.3978H35.7123V33.0257H38.9213V34.8503H35.7123V36.6304L39.0018 36.6389V38.4993V38.5057ZM41.7361 23.1018H38.8755L38.3286 21.106H35.4111L34.8809 23.1018H33.2376C32.4996 23.1611 31.7728 22.8069 31.1945 22.1061L31.2014 22.1124C30.9267 21.6505 30.7181 21.1064 30.5891 20.5149C30.46 19.9234 30.4133 19.2974 30.4519 18.6769L30.4505 18.6938C30.4148 18.0618 30.4638 17.4254 30.5945 16.8232C30.7253 16.2209 30.9351 15.6655 31.2111 15.1906L31.2084 15.1948C31.4998 14.8066 31.8406 14.5139 32.2095 14.335C32.5785 14.1561 32.9676 14.0947 33.3528 14.1547L33.3417 14.1525H34.7019V16.0616H33.3694C33.1745 16.0234 32.9763 16.0511 32.7892 16.1428C32.6021 16.2345 32.4305 16.388 32.2868 16.5923L32.2882 16.5902C31.9914 17.1691 31.8474 17.8959 31.8843 18.6282V18.6177C31.8401 19.37 31.9789 20.1209 32.2743 20.7276L32.2702 20.7192C32.5461 21.0626 32.8993 21.2281 33.2542 21.18H33.2487H33.8788L35.865 14.1399H37.9747L40.3523 22.5965V14.1399H42.4911L44.9589 20.3724V14.1399H46.4024V23.087H44.3982L41.7333 16.3682V23.087L41.7361 23.1018ZM36.8796 15.6642L35.9122 19.2329H37.8512L36.8796 15.6642ZM23.2789 23.0976H21.8743V14.1462H25.1055C25.6953 14.053 26.2907 14.2057 26.8279 14.5881L26.8071 14.5754C27.0231 14.7573 27.2032 15.0241 27.3287 15.3479C27.4542 15.6717 27.5204 16.0408 27.5205 16.4168L27.5178 16.5648V16.5585V16.624C27.5179 17.1123 27.4255 17.5902 27.2517 18.0005C27.0778 18.4108 26.83 18.7359 26.5379 18.9369L26.5268 18.9432C26.8057 19.1039 27.0403 19.3619 27.2194 19.6917L27.2221 19.6959C27.4202 20.1918 27.5019 20.7754 27.4539 21.3513L27.4553 21.3386V23.0955H26.0382L26.0326 21.9665V21.7974C26.0831 21.2454 26.0029 20.684 25.8064 20.2139L25.8106 20.2244C25.6636 20.0599 25.4966 19.9414 25.3194 19.8757C25.1421 19.8101 24.9581 19.7985 24.7779 19.8418L24.7863 19.8397H23.2803V23.0955L23.2789 23.0976ZM23.2789 16.0088V17.9961H24.9833C25.2241 18.0359 25.4673 17.9699 25.6843 17.8058L25.6773 17.8101C25.7662 17.7277 25.8397 17.6119 25.8908 17.4738C25.9418 17.3357 25.9687 17.18 25.9688 17.0215L25.9674 16.9623C25.9745 16.8016 25.9505 16.6435 25.8985 16.5033C25.8464 16.3632 25.7686 16.2493 25.6746 16.1758L25.6718 16.1737C25.4606 16.0357 25.2305 15.9776 25.0014 16.0046H25.0056L23.2789 16.0088ZM8.40551 23.0976H5.55185L5.01194 21.1018H2.08611L1.54203 23.0976H0.0152676L2.53165 14.1462H4.61775L7.00644 22.6177V14.1462H9.29797L11.1356 20.216L12.8248 14.1462H15.1635V23.0934H13.72L13.7172 16.0912L11.6811 23.0955H10.4486L8.4069 16.0807V23.0955L8.40551 23.0976ZM3.54208 15.6642L2.58578 19.2329H4.50394L3.54208 15.6642ZM29.7579 23.0955H28.3256V14.1462H29.7593V23.0934L29.7579 23.0955ZM20.8944 23.0955H16.2114V14.1462H20.9027V16.0067H17.616V17.6198H20.8236V19.457H17.6133V21.2456H20.9V23.0934L20.8944 23.0955Z" fill="white"/>
</svg>
