<svg width="70" height="70" viewBox="0 0 70 70" fill="none" xmlns="http://www.w3.org/2000/svg">
<g id="flat-color-icons:google">
<path id="Vector" d="M63.5994 29.2879H61.25V29.1668H35V40.8335H51.4835C49.0787 47.625 42.6169 52.5002 35 52.5002C25.3356 52.5002 17.5 44.6645 17.5 35.0002C17.5 25.3358 25.3356 17.5002 35 17.5002C39.461 17.5002 43.5196 19.1831 46.6098 21.932L54.8596 13.6822C49.6504 8.82745 42.6825 5.8335 35 5.8335C18.8927 5.8335 5.83333 18.8929 5.83333 35.0002C5.83333 51.1075 18.8927 64.1668 35 64.1668C51.1073 64.1668 64.1667 51.1075 64.1667 35.0002C64.1667 33.0445 63.9654 31.1356 63.5994 29.2879Z" fill="#FFC107"/>
<path id="Vector_2" d="M9.19624 21.4245L18.779 28.4522C21.3719 22.0327 27.6515 17.5002 35 17.5002C39.461 17.5002 43.5196 19.1831 46.6098 21.932L54.8596 13.6822C49.6504 8.82745 42.6825 5.8335 35 5.8335C23.7971 5.8335 14.0817 12.1583 9.19624 21.4245Z" fill="#FF3D00"/>
<path id="Vector_3" d="M35 64.1667C42.5338 64.1667 49.3792 61.2836 54.5548 56.595L45.5277 48.9563C42.501 51.2581 38.8025 52.503 35 52.5C27.4138 52.5 20.9723 47.6627 18.5456 40.9121L9.03438 48.2402C13.8615 57.6859 23.6644 64.1667 35 64.1667Z" fill="#4CAF50"/>
<path id="Vector_4" d="M63.5994 29.2875H61.25V29.1665H35V40.8332H51.4835C50.3332 44.0654 48.2611 46.8899 45.5233 48.9575L45.5277 48.9546L54.5548 56.5934C53.916 57.1738 64.1667 49.5832 64.1667 34.9998C64.1667 33.0442 63.9654 31.1353 63.5994 29.2875Z" fill="#1976D2"/>
</g>
</svg>
