<svg width="24" height="24" viewBox="0 0 24 24" fill="none" xmlns="http://www.w3.org/2000/svg">
<g id="instagram">
<path id="Vector" d="M22 7C22 4.23858 19.7614 2 17 2H12H7C4.23858 2 2 4.23858 2 7V17C2 19.7614 4.23858 22 7 22H17C19.7614 22 22 19.7614 22 17V7Z" stroke="#F38385" stroke-width="2" stroke-linecap="round" stroke-linejoin="round"/>
<path id="Vector_2" d="M15.5938 13.799C15.9813 13.0522 16.1234 12.2022 16 11.37C15.8741 10.5211 15.4785 9.73515 14.8717 9.1283C14.2649 8.52146 13.4789 8.12588 12.63 8C11.7978 7.87658 10.9478 8.01874 10.201 8.40624C9.4542 8.79374 8.8486 9.40685 8.47034 10.1584C8.09208 10.9099 7.96042 11.7615 8.09408 12.5922C8.22774 13.4229 8.61993 14.1902 9.21485 14.7852C9.80977 15.3801 10.5771 15.7723 11.4078 15.9059C12.2385 16.0396 13.0901 15.9079 13.8416 15.5297C14.5932 15.1514 15.2063 14.5458 15.5938 13.799Z" fill="#FDFDFD" stroke="#F38385" stroke-width="2" stroke-linecap="round" stroke-linejoin="round"/>
<path id="Vector_3" d="M17.5 6.5H17.51" stroke="#1F2223" stroke-width="2" stroke-linecap="round" stroke-linejoin="round"/>
</g>
</svg>
