<svg width="70" height="70" viewBox="0 0 70 70" fill="none" xmlns="http://www.w3.org/2000/svg">
<g id="skill-icons:instagram" clip-path="url(#clip0_17_1050)">
<g id="Group">
<path id="Vector" d="M53.5938 0H16.4062C7.34533 0 0 7.34533 0 16.4062V53.5938C0 62.6547 7.34533 70 16.4062 70H53.5938C62.6547 70 70 62.6547 70 53.5938V16.4062C70 7.34533 62.6547 0 53.5938 0Z" fill="url(#paint0_radial_17_1050)"/>
<path id="Vector_2" d="M53.5938 0H16.4062C7.34533 0 0 7.34533 0 16.4062V53.5938C0 62.6547 7.34533 70 16.4062 70H53.5938C62.6547 70 70 62.6547 70 53.5938V16.4062C70 7.34533 62.6547 0 53.5938 0Z" fill="url(#paint1_radial_17_1050)"/>
<path id="Vector_3" d="M35.0025 7.65625C27.5764 7.65625 26.6443 7.68879 23.7278 7.82141C20.8168 7.95484 18.8297 8.41559 17.0912 9.0918C15.2925 9.79016 13.767 10.7245 12.2473 12.2448C10.7261 13.7648 9.7918 15.2904 9.09125 17.0882C8.41313 18.8273 7.95184 20.8152 7.82086 23.7248C7.69043 26.6416 7.65625 27.574 7.65625 35.0003C7.65625 42.4266 7.68906 43.3557 7.82141 46.2722C7.95539 49.1832 8.41613 51.1703 9.0918 52.9088C9.7907 54.7075 10.725 56.233 12.2454 57.7527C13.7648 59.2739 15.2904 60.2104 17.0877 60.9087C18.8275 61.585 20.8149 62.0457 23.7254 62.1791C26.6421 62.3118 27.5734 62.3443 34.9992 62.3443C42.426 62.3443 43.3552 62.3118 46.2716 62.1791C49.1827 62.0457 51.1719 61.585 52.9118 60.9087C54.7096 60.2104 56.233 59.2739 57.7522 57.7527C59.2733 56.233 60.2074 54.7075 60.9082 52.9096C61.5803 51.1703 62.0419 49.1827 62.1786 46.2727C62.3096 43.3563 62.3438 42.4266 62.3438 35.0003C62.3438 27.574 62.3096 26.6421 62.1786 23.7254C62.0419 20.8143 61.5803 18.8275 60.9082 17.089C60.2074 15.2904 59.2733 13.7648 57.7522 12.2448C56.2313 10.7239 54.7102 9.78961 52.9102 9.09207C51.167 8.41559 49.1788 7.95457 46.2678 7.82141C43.3511 7.68879 42.4225 7.65625 34.994 7.65625H35.0025ZM32.5495 12.5839C33.2776 12.5828 34.09 12.5839 35.0025 12.5839C42.3035 12.5839 43.1687 12.6101 46.0518 12.7411C48.7178 12.863 50.1648 13.3085 51.1287 13.6828C52.4048 14.1783 53.3146 14.7708 54.2711 15.7281C55.2281 16.6852 55.8204 17.5965 56.3172 18.8727C56.6915 19.8352 57.1375 21.2822 57.2589 23.9482C57.3899 26.8308 57.4183 27.6965 57.4183 34.994C57.4183 42.2915 57.3899 43.1575 57.2589 46.0398C57.137 48.7058 56.6915 50.1528 56.3172 51.1156C55.8217 52.3917 55.2281 53.3004 54.2711 54.2568C53.314 55.2139 52.4054 55.8061 51.1287 56.3019C50.1659 56.6779 48.7178 57.1222 46.0518 57.2441C43.1692 57.3751 42.3035 57.4036 35.0025 57.4036C27.7011 57.4036 26.8357 57.3751 23.9534 57.2441C21.2874 57.1211 19.8404 56.6757 18.8757 56.3013C17.5998 55.8056 16.6882 55.2133 15.7311 54.2563C14.7741 53.2993 14.1818 52.3901 13.685 51.1134C13.3107 50.1506 12.8647 48.7036 12.7433 46.0376C12.6123 43.155 12.5861 42.2893 12.5861 34.9871C12.5861 27.6853 12.6123 26.8239 12.7433 23.9414C12.8652 21.2754 13.3107 19.8283 13.685 18.8645C14.1807 17.5883 14.7741 16.677 15.7314 15.7199C16.6884 14.7629 17.5998 14.1704 18.8759 13.6738C19.8398 13.2978 21.2874 12.8535 23.9534 12.731C26.4759 12.617 27.4534 12.5828 32.5495 12.577V12.5839ZM49.5986 17.124C47.787 17.124 46.3173 18.5924 46.3173 20.4042C46.3173 22.2157 47.787 23.6854 49.5986 23.6854C51.4101 23.6854 52.8798 22.2157 52.8798 20.4042C52.8798 18.5927 51.4101 17.1229 49.5986 17.1229V17.124ZM35.0025 20.9579C27.2478 20.9579 20.9604 27.2453 20.9604 35.0003C20.9604 42.7552 27.2478 49.0396 35.0025 49.0396C42.7574 49.0396 49.0427 42.7552 49.0427 35.0003C49.0427 27.2456 42.7569 20.9579 35.0019 20.9579H35.0025ZM35.0025 25.8855C40.0362 25.8855 44.1172 29.966 44.1172 35.0003C44.1172 40.034 40.0362 44.115 35.0025 44.115C29.9685 44.115 25.888 40.034 25.888 35.0003C25.888 29.966 29.9685 25.8855 35.0025 25.8855Z" fill="white"/>
</g>
</g>
<defs>
<radialGradient id="paint0_radial_17_1050" cx="0" cy="0" r="1" gradientUnits="userSpaceOnUse" gradientTransform="translate(18.5937 75.3914) rotate(-90) scale(69.3752 64.5244)">
<stop stop-color="#FFDD55"/>
<stop offset="0.1" stop-color="#FFDD55"/>
<stop offset="0.5" stop-color="#FF543E"/>
<stop offset="1" stop-color="#C837AB"/>
</radialGradient>
<radialGradient id="paint1_radial_17_1050" cx="0" cy="0" r="1" gradientUnits="userSpaceOnUse" gradientTransform="translate(-11.7253 5.04246) rotate(78.681) scale(31.0111 127.829)">
<stop stop-color="#3771C8"/>
<stop offset="0.128" stop-color="#3771C8"/>
<stop offset="1" stop-color="#6600FF" stop-opacity="0"/>
</radialGradient>
<clipPath id="clip0_17_1050">
<rect width="70" height="70" fill="white"/>
</clipPath>
</defs>
</svg>
