<svg width="31" height="29" viewBox="0 0 31 29" fill="none" xmlns="http://www.w3.org/2000/svg">
<g id="lock">
<path id="Vector" d="M23.8438 13.1177H6.34375C4.96304 13.1177 3.84375 14.1546 3.84375 15.4338V23.5401C3.84375 24.8192 4.96304 25.8562 6.34375 25.8562H23.8438C25.2245 25.8562 26.3438 24.8192 26.3438 23.5401V15.4338C26.3438 14.1546 25.2245 13.1177 23.8438 13.1177Z" stroke="#F38385" stroke-width="2" stroke-linecap="round" stroke-linejoin="round"/>
<path id="Vector_2" d="M8.84375 13.1177V8.48554C8.84375 6.94988 9.50223 5.47711 10.6743 4.39123C11.8464 3.30535 13.4361 2.69531 15.0938 2.69531C16.7514 2.69531 18.3411 3.30535 19.5132 4.39123C20.6853 5.47711 21.3438 6.94988 21.3438 8.48554V13.1177" stroke="#F38385" stroke-width="2" stroke-linecap="round" stroke-linejoin="round"/>
</g>
</svg>
