<svg width="50" height="50" viewBox="0 0 50 50" fill="none" xmlns="http://www.w3.org/2000/svg">
<g id="logos:mastercard" clip-path="url(#clip0_12_6591)">
<path id="Vector" d="M9.08985 49.7513V46.442C9.08985 45.1732 8.48946 44.346 7.46036 44.346C6.9459 44.346 6.38848 44.5666 6.00254 45.2837C5.70254 44.6769 5.27383 44.346 4.63067 44.346C4.20176 44.346 3.77325 44.5114 3.43008 45.1181V44.4563H2.52969V49.7513H3.43008V46.8279C3.43008 45.8905 3.81602 45.449 4.41641 45.449C5.01641 45.449 5.3168 45.9455 5.3168 46.8279V49.7513H6.21719V46.8279C6.21719 45.8905 6.64571 45.449 7.20313 45.449C7.80352 45.449 8.10352 45.9455 8.10352 46.8279V49.7513H9.08985ZM22.424 44.4563H20.9664V42.8568H20.066V44.4563H19.2514V45.5041H20.0658V47.9312C20.0658 49.1448 20.4518 49.8616 21.4809 49.8616C21.8668 49.8616 22.2953 49.6963 22.5957 49.4757L22.3383 48.4827C22.0811 48.7033 21.7811 48.7586 21.5666 48.7586C21.1379 48.7586 20.9664 48.4277 20.9664 47.8759V45.5041H22.424V44.4563ZM30.0561 44.3458C29.5416 44.3458 29.1986 44.6769 28.9842 45.1181V44.4563H28.0838V49.7513H28.9842V46.7729C28.9842 45.8905 29.2842 45.394 29.8416 45.394C30.0131 45.394 30.2275 45.4493 30.399 45.5043L30.6563 44.4013C30.4848 44.346 30.2275 44.346 30.0561 44.346V44.3458ZM18.5225 44.8975C18.0936 44.5114 17.4934 44.346 16.8502 44.346C15.8213 44.346 15.1354 45.0078 15.1354 46.0558C15.1354 46.9385 15.6498 47.4347 16.5502 47.6003L16.9789 47.6556C17.4506 47.7656 17.7078 47.9312 17.7078 48.2071C17.7078 48.593 17.3648 48.8689 16.7645 48.8689C16.1643 48.8689 15.6926 48.593 15.3924 48.3174L14.9637 49.1998C15.4354 49.641 16.0785 49.8616 16.7215 49.8616C17.9221 49.8616 18.6082 49.1448 18.6082 48.1518C18.6082 47.2141 18.0508 46.7176 17.1932 46.5523L16.7645 46.497C16.3785 46.4418 16.0785 46.3317 16.0785 46.0008C16.0785 45.6146 16.3785 45.394 16.8502 45.394C17.3648 45.394 17.8793 45.6696 18.1365 45.8352L18.5225 44.8975ZM42.4473 44.346C41.9326 44.346 41.5897 44.6769 41.3752 45.1181V44.4563H40.4748V49.7513H41.3752V46.7729C41.3752 45.8905 41.6754 45.394 42.2326 45.394C42.4043 45.394 42.6188 45.4493 42.7902 45.5043L43.0475 44.4013C42.876 44.346 42.6188 44.346 42.4473 44.346ZM30.9564 47.1038C30.9564 48.7033 31.8139 49.8616 33.1432 49.8616C33.7434 49.8616 34.1721 49.6963 34.6008 49.2551L34.1721 48.3174C33.8291 48.6483 33.4861 48.8136 33.1002 48.8136C32.3713 48.8136 31.8568 48.1518 31.8568 47.1038C31.8568 46.1111 32.3713 45.449 33.1002 45.394C33.4861 45.394 33.8291 45.5593 34.1721 45.8905L34.6008 44.9528C34.1721 44.5114 33.7434 44.346 33.1432 44.346C31.8139 44.346 30.9564 45.5043 30.9564 47.1038ZM39.2744 47.1038V44.4563H38.374V45.1181C38.0738 44.6219 37.6451 44.346 37.0877 44.346C35.9301 44.346 35.0297 45.5043 35.0297 47.1038C35.0297 48.7033 35.9301 49.8616 37.0877 49.8616C37.6879 49.8616 38.1168 49.586 38.374 49.0895V49.7513H39.2744V47.1038ZM35.9729 47.1038C35.9729 46.1661 36.4445 45.394 37.2162 45.394C37.9451 45.394 38.4598 46.1111 38.4598 47.1038C38.4598 48.0415 37.9451 48.8136 37.2162 48.8136C36.4445 48.7583 35.9729 48.0415 35.9729 47.1038ZM25.2111 44.346C24.0106 44.346 23.1529 45.449 23.1529 47.1038C23.1529 48.7586 24.0104 49.8616 25.2539 49.8616C25.8541 49.8616 26.4545 49.641 26.9262 49.1448L26.4973 48.3174C26.1543 48.6483 25.7256 48.8689 25.2969 48.8689C24.7395 48.8689 24.182 48.538 24.0533 47.6001H27.0977V47.1591C27.1406 45.449 26.3689 44.346 25.2111 44.346ZM25.2111 45.3387C25.7684 45.3387 26.1545 45.7802 26.24 46.6076H24.0963C24.182 45.8905 24.568 45.3387 25.2111 45.3387ZM47.5494 47.1038V42.3604H46.649V45.1181C46.3488 44.6219 45.9201 44.346 45.3627 44.346C44.2051 44.346 43.3047 45.5043 43.3047 47.1038C43.3047 48.7033 44.2051 49.8616 45.3627 49.8616C45.9631 49.8616 46.3918 49.586 46.649 49.0895V49.7513H47.5494V47.1038ZM44.2481 47.1038C44.2481 46.1661 44.7195 45.394 45.4914 45.394C46.2203 45.394 46.7348 46.1111 46.7348 47.1038C46.7348 48.0415 46.2203 48.8136 45.4914 48.8136C44.7195 48.7583 44.2481 48.0415 44.2481 47.1038ZM14.149 47.1038V44.4563H13.2486V45.1181C12.9484 44.6219 12.5197 44.346 11.9623 44.346C10.8047 44.346 9.9043 45.5043 9.9043 47.1038C9.9043 48.7033 10.8047 49.8616 11.9623 49.8616C12.5627 49.8616 12.9914 49.586 13.2486 49.0895V49.7513H14.149V47.1038ZM10.8047 47.1038C10.8047 46.1661 11.2764 45.394 12.0481 45.394C12.777 45.394 13.2916 46.1111 13.2916 47.1038C13.2916 48.0415 12.777 48.8136 12.0481 48.8136C11.2764 48.7583 10.8047 48.0415 10.8047 47.1038Z" fill="white"/>
<path id="Vector_2" d="M18.2223 4.24707H31.7281V35.4659H18.2223V4.24707Z" fill="#FF5F00"/>
<path id="Vector_3" d="M19.0799 19.8565C19.0799 13.5136 21.3951 7.88744 24.9537 4.24698C22.3385 1.5995 19.0371 0 15.4355 0C6.90293 0 0 8.88015 0 19.8565C0 30.8327 6.90293 39.7131 15.4354 39.7131C19.0369 39.7131 22.3383 38.1136 24.9537 35.4658C21.3951 31.8807 19.0799 26.1995 19.0799 19.8565Z" fill="#EB001B"/>
<path id="Vector_4" d="M49.9504 19.8565C49.9504 30.8327 43.0475 39.7131 34.515 39.7131C30.9135 39.7131 27.6121 38.1136 24.9967 35.4658C28.5982 31.8256 30.8707 26.1995 30.8707 19.8565C30.8707 13.5136 28.5553 7.88744 24.9967 4.24698C27.6119 1.5995 30.9135 0 34.515 0C43.0475 0 49.9504 8.93543 49.9504 19.8565Z" fill="#F79E1B"/>
</g>
<defs>
<clipPath id="clip0_12_6591">
<rect width="50" height="50" fill="white"/>
</clipPath>
</defs>
</svg>
