<svg width="50" height="50" viewBox="0 0 50 50" fill="none" xmlns="http://www.w3.org/2000/svg">
<g id="logos:paypal" clip-path="url(#clip0_12_6598)">
<path id="Vector" d="M42.4156 3.89204C39.6941 1.26257 34.7746 0.135254 28.4811 0.135254H10.2154C9.59275 0.135273 8.9905 0.323588 8.51695 0.666342C8.0434 1.0091 7.72963 1.4838 7.63204 2.00512L0.0265723 42.8937C-0.1246 43.7 0.611924 44.4301 1.57599 44.4301H12.8525L15.6846 29.2031L15.5967 29.68C15.7984 28.6036 16.8844 27.8098 18.1703 27.8098H23.5289C34.0559 27.8098 42.2986 24.1853 44.7065 13.7003C44.7779 13.3902 44.8399 13.0884 44.8934 12.7935C44.5895 12.6571 44.5895 12.6571 44.8934 12.7935C45.6104 8.9182 44.8885 6.28029 42.4156 3.89204Z" fill="#27346A"/>
<path id="Vector_2" d="M19.9994 11.3975C20.3077 11.2731 20.6449 11.2086 20.9863 11.2088H35.3063C37.002 11.2088 38.5836 11.3023 40.0289 11.4995C40.4333 11.5542 40.8357 11.6194 41.2354 11.6952C41.8018 11.8011 42.3618 11.9308 42.9131 12.0838C43.6236 12.2849 44.2854 12.5192 44.8936 12.7935C45.6104 8.91671 44.8885 6.28029 42.4156 3.89204C39.6926 1.26257 34.7746 0.135254 28.4811 0.135254H10.2139C8.92774 0.135254 7.8336 0.928962 7.63204 2.00512L0.0265733 42.8922C-0.124599 43.6998 0.611925 44.429 1.57442 44.429H12.8526L18.7281 12.8445C18.7859 12.5341 18.9318 12.2402 19.1533 11.9881C19.3747 11.736 19.6651 11.5334 19.9994 11.3975Z" fill="#27346A"/>
<path id="Vector_3" d="M44.7065 13.7002C42.2987 24.1837 34.0561 27.8097 23.5289 27.8097H18.1688C16.8828 27.8097 15.7967 28.6036 15.5969 29.6799L12.0737 48.6128C11.942 49.3185 12.5858 49.9579 13.4279 49.9579H22.9338C23.4783 49.9577 24.0049 49.7929 24.4189 49.4931C24.8329 49.1932 25.1071 48.778 25.1922 48.3221L25.2848 47.9115L27.0764 38.2863L27.1918 37.7544C27.2769 37.2985 27.5511 36.8833 27.965 36.5835C28.379 36.2836 28.9055 36.1188 29.45 36.1186H30.8727C40.0811 36.1186 47.2914 32.9474 49.3985 23.7759C50.2779 19.9431 49.8229 16.7431 47.4963 14.4954C46.7906 13.8146 45.9143 13.2524 44.8934 12.7935C44.8381 13.0898 44.7781 13.3901 44.7065 13.7002Z" fill="#2790C3"/>
<path id="Vector_4" d="M42.3735 11.9418C41.998 11.8488 41.619 11.7666 41.2371 11.6951C40.8373 11.6206 40.4349 11.5557 40.0307 11.5007C38.5838 11.3022 37.0033 11.2085 35.3061 11.2085H20.9879C20.6462 11.2078 20.3088 11.2729 20.001 11.3987C19.6663 11.5342 19.3756 11.7367 19.154 11.9889C18.9325 12.241 18.7868 12.5351 18.7295 12.8458L15.6862 29.203L15.5983 29.6799C15.7985 28.6035 16.8844 27.8097 18.1705 27.8097H23.5307C34.0576 27.8097 42.3002 24.1852 44.708 13.7002C44.7797 13.3901 44.8399 13.0896 44.8951 12.7934C44.2854 12.5206 43.6254 12.2848 42.9147 12.085C42.7353 12.0346 42.555 11.9868 42.3737 11.9418" fill="#1F264F"/>
</g>
<defs>
<clipPath id="clip0_12_6598">
<rect width="50" height="50" fill="white"/>
</clipPath>
</defs>
</svg>
