<svg width="24" height="24" viewBox="0 0 24 24" fill="none" xmlns="http://www.w3.org/2000/svg">
<g id="ph:paw-print-thin">
<path id="Vector" d="M19.875 7.875C19.43 7.875 18.995 8.00696 18.625 8.25419C18.255 8.50143 17.9666 8.85283 17.7963 9.26396C17.626 9.6751 17.5814 10.1275 17.6682 10.564C17.7551 11.0004 17.9693 11.4013 18.284 11.716C18.5987 12.0307 18.9996 12.245 19.436 12.3318C19.8725 12.4186 20.3249 12.374 20.736 12.2037C21.1472 12.0334 21.4986 11.745 21.7458 11.375C21.993 11.005 22.125 10.57 22.125 10.125C22.125 9.52826 21.8879 8.95597 21.466 8.53401C21.044 8.11205 20.4717 7.875 19.875 7.875ZM19.875 11.625C19.5783 11.625 19.2883 11.537 19.0416 11.3722C18.795 11.2074 18.6027 10.9731 18.4892 10.699C18.3757 10.4249 18.3459 10.1233 18.4038 9.83237C18.4617 9.54139 18.6046 9.27412 18.8143 9.06434C19.0241 8.85456 19.2914 8.7117 19.5824 8.65382C19.8733 8.59594 20.1749 8.62565 20.449 8.73918C20.7231 8.85271 20.9574 9.04497 21.1222 9.29165C21.287 9.53832 21.375 9.82833 21.375 10.125C21.375 10.5228 21.217 10.9044 20.9357 11.1857C20.6544 11.467 20.2728 11.625 19.875 11.625ZM6.375 10.125C6.375 9.67999 6.24304 9.24498 5.99581 8.87497C5.74857 8.50496 5.39717 8.21657 4.98604 8.04627C4.57491 7.87597 4.12251 7.83142 3.68605 7.91823C3.24959 8.00505 2.84868 8.21934 2.53401 8.53401C2.21934 8.84868 2.00505 9.24959 1.91823 9.68605C1.83142 10.1225 1.87597 10.5749 2.04627 10.986C2.21657 11.3972 2.50496 11.7486 2.87497 11.9958C3.24498 12.243 3.67999 12.375 4.125 12.375C4.72174 12.375 5.29403 12.1379 5.71599 11.716C6.13795 11.294 6.375 10.7217 6.375 10.125ZM4.125 11.625C3.82833 11.625 3.53832 11.537 3.29165 11.3722C3.04497 11.2074 2.85271 10.9731 2.73918 10.699C2.62565 10.4249 2.59595 10.1233 2.65382 9.83237C2.7117 9.54139 2.85456 9.27412 3.06434 9.06434C3.27412 8.85456 3.54139 8.7117 3.83237 8.65382C4.12334 8.59594 4.42494 8.62565 4.69903 8.73918C4.97312 8.85271 5.20738 9.04497 5.37221 9.29165C5.53703 9.53832 5.625 9.82833 5.625 10.125C5.625 10.5228 5.46697 10.9044 5.18566 11.1857C4.90436 11.467 4.52283 11.625 4.125 11.625ZM8.625 7.875C9.07001 7.875 9.50502 7.74304 9.87503 7.49581C10.245 7.24857 10.5334 6.89717 10.7037 6.48604C10.874 6.0749 10.9186 5.6225 10.8318 5.18605C10.745 4.74959 10.5307 4.34868 10.216 4.03401C9.90132 3.71934 9.50041 3.50505 9.06395 3.41823C8.6275 3.33142 8.1751 3.37597 7.76396 3.54627C7.35283 3.71657 7.00143 4.00496 6.75419 4.37497C6.50696 4.74498 6.375 5.17999 6.375 5.625C6.375 6.22174 6.61205 6.79403 7.03401 7.21599C7.45597 7.63795 8.02826 7.875 8.625 7.875ZM8.625 4.125C8.92167 4.125 9.21168 4.21297 9.45836 4.3778C9.70503 4.54262 9.89729 4.77689 10.0108 5.05098C10.1244 5.32506 10.1541 5.62666 10.0962 5.91764C10.0383 6.20861 9.89544 6.47588 9.68566 6.68566C9.47588 6.89544 9.20861 7.0383 8.91764 7.09618C8.62666 7.15406 8.32507 7.12435 8.05098 7.01082C7.77689 6.89729 7.54262 6.70503 7.3778 6.45836C7.21297 6.21168 7.125 5.92167 7.125 5.625C7.125 5.22718 7.28304 4.84565 7.56434 4.56434C7.84565 4.28304 8.22718 4.125 8.625 4.125ZM15.375 7.875C15.82 7.875 16.255 7.74304 16.625 7.49581C16.995 7.24857 17.2834 6.89717 17.4537 6.48604C17.624 6.0749 17.6686 5.6225 17.5818 5.18605C17.495 4.74959 17.2807 4.34868 16.966 4.03401C16.6513 3.71934 16.2504 3.50505 15.814 3.41823C15.3775 3.33142 14.9251 3.37597 14.514 3.54627C14.1028 3.71657 13.7514 4.00496 13.5042 4.37497C13.257 4.74498 13.125 5.17999 13.125 5.625C13.125 6.22174 13.3621 6.79403 13.784 7.21599C14.206 7.63795 14.7783 7.875 15.375 7.875ZM15.375 4.125C15.6717 4.125 15.9617 4.21297 16.2084 4.3778C16.455 4.54262 16.6473 4.77689 16.7608 5.05098C16.8744 5.32506 16.9041 5.62666 16.8462 5.91764C16.7883 6.20861 16.6454 6.47588 16.4357 6.68566C16.2259 6.89544 15.9586 7.0383 15.6676 7.09618C15.3767 7.15406 15.0751 7.12435 14.801 7.01082C14.5269 6.89729 14.2926 6.70503 14.1278 6.45836C13.963 6.21168 13.875 5.92167 13.875 5.625C13.875 5.22718 14.033 4.84565 14.3143 4.56434C14.5956 4.28304 14.9772 4.125 15.375 4.125ZM17.3606 14.2838C16.5049 13.8112 15.8719 13.018 15.6009 12.0788C15.3743 11.2991 14.9007 10.614 14.2513 10.1265C13.602 9.63907 12.812 9.37553 12 9.37553C11.188 9.37553 10.398 9.63907 9.74866 10.1265C9.09931 10.614 8.62572 11.2991 8.39906 12.0788C8.12894 13.0171 7.49738 13.8098 6.64313 14.2828C5.88183 14.6961 5.30856 15.3862 5.04199 16.2104C4.77541 17.0346 4.83594 17.9297 5.21104 18.7105C5.58614 19.4913 6.24709 20.098 7.05709 20.4049C7.86709 20.7119 8.76412 20.6957 9.5625 20.3597C11.1222 19.7166 12.8731 19.7166 14.4328 20.3597C15.2314 20.7004 16.1307 20.7201 16.9435 20.4149C17.7563 20.1097 18.4203 19.5029 18.7973 18.7208C19.1743 17.9386 19.2354 17.0413 18.9678 16.2153C18.7002 15.3893 18.1246 14.6982 17.3606 14.2856V14.2838ZM15.75 19.875C15.3956 19.8762 15.0447 19.805 14.7188 19.6659C12.9742 18.9459 11.0155 18.9459 9.27094 19.6659C8.94823 19.8038 8.60094 19.875 8.25 19.875C7.66546 19.8752 7.09758 19.6803 6.63637 19.3211C6.17517 18.962 5.84703 18.4592 5.70396 17.8925C5.5609 17.3257 5.6111 16.7274 5.84661 16.1924C6.08212 15.6574 6.48946 15.2163 7.00406 14.9391C7.51362 14.6577 7.96271 14.2786 8.32562 13.8235C8.68854 13.3685 8.95816 12.8463 9.11906 12.2869C9.30028 11.663 9.67913 11.1148 10.1987 10.7247C10.7182 10.3346 11.3503 10.1237 12 10.1237C12.6497 10.1237 13.2818 10.3346 13.8013 10.7247C14.3209 11.1148 14.6997 11.663 14.8809 12.2869C15.0423 12.8467 15.3125 13.3692 15.6761 13.8244C16.0396 14.2797 16.4894 14.6588 16.9997 14.94C17.5141 15.2176 17.9211 15.659 18.1562 16.1942C18.3913 16.7294 18.4411 17.3277 18.2976 17.8944C18.1541 18.461 17.8255 18.9636 17.3641 19.3224C16.9026 19.6812 16.3345 19.8756 15.75 19.875Z" fill="#F38385"/>
</g>
</svg>
