<svg width="24" height="24" viewBox="0 0 24 24" fill="none" xmlns="http://www.w3.org/2000/svg">
<g id="phone">
<path id="Vector" d="M22 19.92V16.92C22.0122 16.4296 21.8437 15.9518 21.5265 15.5775C21.2094 15.2032 20.7658 14.9585 20.28 14.89C19.3199 14.7634 18.3773 14.5286 17.47 14.19C17.1121 14.0555 16.7231 14.0263 16.3491 14.1061C15.9751 14.1859 15.6319 14.3711 15.36 14.64L14.09 15.91C11.5864 14.4865 9.51355 12.4136 8.08999 9.91001L9.35999 8.64001C9.62886 8.36812 9.81415 8.02485 9.8939 7.65089C9.97366 7.27692 9.94454 6.88793 9.80999 6.53001C9.47144 5.62273 9.23662 4.68007 9.10999 3.72001C9.04207 3.23945 8.80173 2.79999 8.43376 2.48354C8.06579 2.16708 7.5953 1.99523 7.10999 2.00001H4.10999C3.83233 2.00027 3.55777 2.05834 3.30379 2.17053C3.0498 2.28271 2.82196 2.44656 2.63476 2.65163C2.44756 2.85669 2.30512 3.09849 2.21649 3.36163C2.12787 3.62477 2.095 3.90347 2.11999 4.18001C2.44824 7.271 3.49997 10.2412 5.18999 12.85C6.72533 15.2662 8.77382 17.3147 11.19 18.85C13.787 20.5342 16.7428 21.5856 19.82 21.92C20.0974 21.9451 20.3769 21.9119 20.6407 21.8227C20.9046 21.7335 21.1469 21.5901 21.3521 21.4019C21.5573 21.2136 21.7209 20.9845 21.8325 20.7294C21.9441 20.4742 22.0011 20.1985 22 19.92Z" stroke="#F38385" stroke-width="2" stroke-linecap="round" stroke-linejoin="round"/>
</g>
</svg>
