<svg width="40" height="40" viewBox="0 0 40 40" fill="none" xmlns="http://www.w3.org/2000/svg">
<g id="shopping-cart">
<g id="Cart">
<path id="Vector" d="M15 36.6666C15.9205 36.6666 16.6667 35.9205 16.6667 35C16.6667 34.0795 15.9205 33.3333 15 33.3333C14.0796 33.3333 13.3334 34.0795 13.3334 35C13.3334 35.9205 14.0796 36.6666 15 36.6666Z" stroke="#F38385" stroke-width="2" stroke-linecap="round" stroke-linejoin="round"/>
<path id="Vector_2" d="M33.3334 36.6666C34.2538 36.6666 35 35.9205 35 35C35 34.0795 34.2538 33.3333 33.3334 33.3333C32.4129 33.3333 31.6667 34.0795 31.6667 35C31.6667 35.9205 32.4129 36.6666 33.3334 36.6666Z" stroke="#F38385" stroke-width="2" stroke-linecap="round" stroke-linejoin="round"/>
<path id="Vector_3" d="M1.66669 1.66666H8.33335L12.8 23.9833C12.9524 24.7507 13.3699 25.4399 13.9793 25.9305C14.5887 26.4211 15.3512 26.6816 16.1334 26.6667H32.3334C33.1155 26.6816 33.878 26.4211 34.4874 25.9305C35.0968 25.4399 35.5143 24.7507 35.6667 23.9833L38.3334 9.99999H10" stroke="#F38385" stroke-width="2" stroke-linecap="round" stroke-linejoin="round"/>
</g>
</g>
</svg>
