<svg width="70" height="70" viewBox="0 0 70 70" fill="none" xmlns="http://www.w3.org/2000/svg">
<g id="devicon:twitter">
<path id="Vector" d="M62.8338 20.7198C62.8764 21.3372 62.8764 21.9541 62.8764 22.577C62.8764 41.5535 48.4296 63.4395 22.0139 63.4395V63.4285C14.2101 63.4395 6.56793 61.2042 0 56.9896C1.13477 57.1263 2.275 57.1947 3.41797 57.1974C9.88592 57.2026 16.1678 55.0333 21.2543 51.038C18.2574 50.9814 15.3531 49.9896 12.9475 48.2015C10.5419 46.4133 8.7552 43.918 7.83727 41.0646C9.99031 41.4802 12.2084 41.3944 14.3216 40.8169C7.62125 39.4634 2.80109 33.5768 2.80109 26.7403V26.5582C4.79845 27.6709 7.03393 28.2874 9.3193 28.3558C3.00781 24.1383 1.06367 15.7432 4.8743 9.18016C8.47979 13.6168 12.9782 17.2453 18.0774 19.8302C23.1766 22.415 28.7625 23.8983 34.4723 24.1837C33.9031 21.733 33.9874 19.1759 34.7166 16.768C35.4457 14.3601 36.7943 12.1858 38.6274 10.4626C44.4117 5.02501 53.509 5.30391 58.946 11.0855C62.1623 10.4504 65.2466 9.2712 68.0662 7.5986C66.9941 10.924 64.7506 13.7468 61.7531 15.542C64.6 15.2063 67.3801 14.444 70 13.2806C68.0727 16.1668 65.6459 18.686 62.8338 20.7198Z" fill="#1D9BF0"/>
</g>
</svg>
