<svg width="24" height="24" viewBox="0 0 24 24" fill="none" xmlns="http://www.w3.org/2000/svg">
<g id="twitter">
<path id="Vector" d="M19.86 4.52999C20.9821 4.19209 22.0424 3.67546 23 2.99998C22.6608 4.3927 21.9406 5.66348 20.92 6.66999C20.9723 6.94358 20.9991 7.22144 21 7.49998C21 19 10 24 1 19C3.48716 19.0989 5.94053 18.398 8 17C-1 13 3 3.99998 3 3.99998C4.01032 5.43862 5.36074 6.60506 6.93101 7.39543C8.50127 8.1858 10.2426 8.57555 12 8.52998V7.52998C11.9877 6.61232 12.2575 5.71302 12.773 4.9537C13.2884 4.19439 14.0247 3.6117 14.8821 3.28444C15.7395 2.95718 16.6767 2.90115 17.567 3.12391C18.4573 3.34668 19.2577 3.8375 19.86 4.52999Z" stroke="#F38385" stroke-width="2" stroke-linecap="round" stroke-linejoin="round"/>
</g>
</svg>
