<svg width="50" height="50" viewBox="0 0 50 50" fill="none" xmlns="http://www.w3.org/2000/svg">
<g id="bxl:visa">
<path id="Vector" d="M34.4563 19.1374C33.4878 18.7845 32.4641 18.6074 31.4333 18.6145C28.1 18.6145 25.7458 20.2936 25.7292 22.704C25.7083 24.4749 27.4021 25.4728 28.6833 26.0645C29.9979 26.6728 30.4375 27.0561 30.4333 27.5999C30.425 28.427 29.3833 28.802 28.4146 28.802C27.0833 28.802 26.3563 28.6165 25.2375 28.152L24.8229 27.9582L24.35 30.7332C25.1604 31.0707 26.6208 31.3603 28.1292 31.3853C31.6729 31.3853 33.9896 29.7165 34.0167 27.152C34.0458 25.7374 33.1292 24.6686 31.2 23.7853C30.0271 23.2124 29.3 22.829 29.3 22.2478C29.3 21.7332 29.9229 21.1832 31.225 21.1832C32.0916 21.1622 32.9528 21.3248 33.7521 21.6603L34.0646 21.7999L34.5375 19.1186L34.4563 19.1374ZM43.1063 18.8395H40.5021C39.6917 18.8395 39.0813 19.0624 38.7271 19.8665L33.7188 31.2124H37.2625L37.9708 29.352L42.2958 29.3561C42.3979 29.7915 42.7104 31.2124 42.7104 31.2124H45.8354L43.1063 18.8395ZM20.9354 18.7353H24.3125L22.2 31.1145H18.8271L20.9354 18.7311V18.7353ZM12.3625 25.5582L12.7125 27.277L16.0125 18.8395H19.5896L14.275 31.1957H10.7063L7.78959 20.7332C7.74235 20.5607 7.63141 20.4125 7.47917 20.3186C6.42792 19.7756 5.31406 19.3635 4.16251 19.0915L4.20834 18.8311H9.64376C10.3813 18.8603 10.975 19.0915 11.1729 19.879L12.3604 25.5645L12.3625 25.5582ZM38.9396 26.8207L40.2854 23.3582C40.2688 23.3957 40.5625 22.6436 40.7333 22.179L40.9646 23.2478L41.7458 26.8186H38.9375L38.9396 26.8207Z" fill="white"/>
</g>
</svg>
